    <svg
      xmlns="http://www.w3.org/2000/svg"
      width="76"
      height="71"
      data-name="Слой 2"
      viewBox="0 0 76 71"
    >
      <path d="M69.23 0H6.77C3.06 0 .09 2.43 0 5.58v45.74C0 54.45 3 57 6.77 57H36v11H18.5a1.5 1.5 0 000 3h39a1.5 1.5 0 000-3H39V57h30.23C73 57 76 54.45 76 51.32V5.68C76 2.55 73 0 69.23 0zM73 51.32c0 1.45-1.73 2.68-3.77 2.68H6.77C4.77 54 3 52.77 3 51.32V5.62C3 4.18 4.73 3 6.77 3h62.46c2 0 3.77 1.23 3.77 2.68z"></path>
      <path d="M43.27 19.63a1.5 1.5 0 00-2 .65L33.19 36a1.5 1.5 0 102.67 1.37l8.06-15.75a1.5 1.5 0 00-.65-1.99zM52.86 19.08a1.5 1.5 0 00-2.12 2.12l7.48 7.47-7.48 7.47a1.5 1.5 0 102.12 2.12l8.54-8.53a1.5 1.5 0 000-2.12zM26.4 19.08a1.5 1.5 0 00-2.12 0l-8.54 8.54a1.5 1.5 0 000 2.12l8.54 8.54a1.5 1.5 0 002.12-2.12l-7.48-7.47 7.48-7.49a1.5 1.5 0 000-2.12z"></path>
    </svg>